<?xml version="1.0" encoding="UTF-8" standalone="no"?>
<svg
   xmlns:i="http://ns.adobe.com/AdobeIllustrator/10.0/"
   xmlns:dc="http://purl.org/dc/elements/1.1/"
   xmlns:cc="http://creativecommons.org/ns#"
   xmlns:rdf="http://www.w3.org/1999/02/22-rdf-syntax-ns#"
   xmlns:svg="http://www.w3.org/2000/svg"
   xmlns="http://www.w3.org/2000/svg"
   xmlns:sodipodi="http://sodipodi.sourceforge.net/DTD/sodipodi-0.dtd"
   xmlns:inkscape="http://www.inkscape.org/namespaces/inkscape"
   version="1.1"
   id="Layer_1"
   x="0px"
   y="0px"
   viewBox="0 0 871.07336 888.91071"
   xml:space="preserve"
   sodipodi:docname="desenvolvimento-de-sistemas-sob-medida.svg"
   width="871.07336"
   height="888.91071"
   inkscape:version="0.92.4 (5da689c313, 2019-01-14)"><metadata
   id="metadata655"><rdf:RDF><cc:Work
       rdf:about=""><dc:format>image/svg+xml</dc:format><dc:type
         rdf:resource="http://purl.org/dc/dcmitype/StillImage" /><dc:title></dc:title></cc:Work></rdf:RDF></metadata><defs
   id="defs653" /><sodipodi:namedview
   pagecolor="#ffffff"
   bordercolor="#666666"
   borderopacity="1"
   objecttolerance="10"
   gridtolerance="10"
   guidetolerance="10"
   inkscape:pageopacity="0"
   inkscape:pageshadow="2"
   inkscape:window-width="1920"
   inkscape:window-height="1017"
   id="namedview651"
   showgrid="false"
   inkscape:zoom="0.24279835"
   inkscape:cx="-96.471109"
   inkscape:cy="442.2"
   inkscape:window-x="-8"
   inkscape:window-y="-8"
   inkscape:window-maximized="1"
   inkscape:current-layer="Layer_1" />
<style
   type="text/css"
   id="style2">
	.st0{opacity:0.37;fill:#CCE9FF;}
	.st1{fill:#FFBE55;}
	.st2{fill:#2A94F4;}
	.st3{fill:#FFFFFF;}
	.st4{fill:#0E538C;}
	.st5{fill:#F7F7F7;}
	.st6{fill:#0B4870;stroke:#FFFFFF;stroke-width:0.5;stroke-miterlimit:10;}
	.st7{fill:#F2F2F2;}
	.st8{fill:#D3D3D3;}
	.st9{fill:#FFB750;}
	.st10{fill:#FFE3CA;}
	.st11{fill:#EB4747;}
	.st12{fill:#FCD2B1;}
	.st13{fill:#F2F0F0;}
	.st14{fill:#FCBAA2;}
	.st15{fill:#CCE9FF;}
	.st16{fill:#FF957E;}
	.st17{fill:#0B4870;}
	.st18{fill:#E9D6B8;}
</style>

	<g
   i:extraneous="self"
   id="g648"
   transform="translate(-145.19992,-39.2893)">
		<g
   id="g646">
			<path
   class="st0"
   d="m 220.9,762.7 c 1.9,4.7 4,9.4 6.3,13.9 34.2,67.1 103.6,109.4 177.6,117 59.2,6 116.8,-13.3 166.3,-44.8 49.4,-31.4 89,-75.6 143.9,-98.6 77.4,-32.3 163.7,-57.8 224.4,-126.2 69,-77.7 95.6,-195.5 63.1,-294.9 C 970.9,232.1 866,200.7 784.5,158 638,81.1 435.1,30 282.6,120.3 99.9,228.4 133.1,473.8 191,644.1 c 13.2,38.8 14.8,80.6 29.9,118.6 z"
   id="path4"
   inkscape:connector-curvature="0"
   style="opacity:0.37000002;fill:#cce9ff" />
			<path
   class="st1"
   d="m 314.1,302.9 -0.3,-1.9 h -1.9 c -37,0 -49,-11.9 -49.1,-12 l -1.6,-1.8 -1.6,1.8 c -0.1,0.1 -12,12 -49.1,12 h -1.9 l -0.3,1.9 c -0.1,0.6 -7.9,60.2 51.9,90.8 l 1,0.5 1,-0.5 c 60,-30.6 51.9,-90.2 51.9,-90.8 z m -9,36.9 c -7.4,21.4 -22.2,38 -44,49.4 -21.8,-11.4 -36.6,-28 -44,-49.4 -5.4,-15.7 -5.1,-29.4 -4.7,-34.3 30.8,-0.4 44.5,-8.6 48.7,-12 4.2,3.3 17.9,11.6 48.7,12 0.4,5 0.7,18.6 -4.7,34.3 z"
   id="path6"
   inkscape:connector-curvature="0"
   style="fill:#ffbe55" />
			<g
   id="g10">
				<path
   class="st1"
   d="m 372.8,226.3 -2.1,-5.5 c -1.9,-0.2 -3.7,-0.7 -5.5,-1.3 l -4.3,4 -12.4,-8.9 2.4,-5.4 c -1.2,-1.5 -2.2,-3.1 -3,-4.8 l -5.9,-0.2 -2.5,-15.1 5.5,-2.1 c 0.2,-1.9 0.7,-3.7 1.3,-5.5 l -4,-4.3 8.9,-12.5 5.4,2.4 c 1.5,-1.2 3.1,-2.2 4.8,-3 l 0.2,-5.9 15.1,-2.5 2.1,5.5 c 1.9,0.2 3.7,0.7 5.5,1.3 l 4.3,-4 12.4,8.9 -2.4,5.4 c 1.2,1.5 2.2,3.1 3,4.8 l 5.9,0.2 2.5,15.1 -5.5,2.1 c -0.3,1.9 -0.7,3.7 -1.3,5.5 l 4,4.3 -8.9,12.5 -5.4,-2.4 c -1.5,1.2 -3.1,2.2 -4.8,3 l -0.2,5.9 z m -8.6,-11.6 1.2,0.5 c 2.2,0.9 4.6,1.4 7,1.6 l 1.3,0.1 1.8,4.7 8.3,-1.4 0.2,-5 1.2,-0.5 c 2.2,-1 4.2,-2.3 6.1,-3.8 l 1,-0.8 4.6,2.1 4.9,-6.8 -3.5,-3.7 0.5,-1.2 c 0.9,-2.2 1.4,-4.6 1.6,-7 l 0.1,-1.3 4.7,-1.8 -1.4,-8.3 -5,-0.2 -0.5,-1.2 c -1,-2.2 -2.3,-4.2 -3.8,-6.1 l -0.8,-1 2.1,-4.6 -6.8,-4.9 -3.7,3.4 -1.2,-0.5 c -2.2,-0.9 -4.6,-1.4 -7,-1.6 l -1.3,-0.1 -1.8,-4.7 -8.3,1.4 -0.2,5 -1.2,0.5 c -2.2,1 -4.2,2.3 -6.1,3.8 l -1,0.8 -4.6,-2.1 -4.9,6.8 3.5,3.7 -0.5,1.2 c -0.9,2.2 -1.4,4.6 -1.6,7 l -0.1,1.3 -4.7,1.8 1.4,8.3 5,0.2 0.5,1.2 c 1,2.2 2.3,4.2 3.8,6.1 l 0.8,1 -2.1,4.6 6.8,4.9 z m 10.4,-7 c -3.4,0 -6.8,-1.1 -9.6,-3.1 -7.5,-5.3 -9.2,-15.7 -3.9,-23.2 5.3,-7.5 15.7,-9.2 23.2,-3.9 3.6,2.6 6,6.4 6.8,10.8 0.7,4.4 -0.3,8.8 -2.8,12.4 -2.6,3.6 -6.4,6 -10.8,6.8 -1.1,0.1 -2,0.2 -2.9,0.2 z m 0,-29.1 c -3.9,0 -7.7,1.8 -10.1,5.2 -1.9,2.7 -2.7,6 -2.1,9.3 0.6,3.3 2.3,6.1 5,8 v 0 c 2.7,1.9 6,2.7 9.3,2.1 3.3,-0.6 6.1,-2.3 8,-5 1.9,-2.7 2.7,-6 2.1,-9.3 -0.6,-3.3 -2.3,-6.1 -5,-8 -2.2,-1.5 -4.7,-2.3 -7.2,-2.3 z"
   id="path8"
   inkscape:connector-curvature="0"
   style="fill:#ffbe55" />
			</g>
			<g
   id="g14">
				<path
   class="st1"
   d="M 852.2,389.3 847.5,377 c -5,-0.6 -10,-1.7 -14.7,-3.4 l -9.6,9 -26,-18.5 5.4,-12 c -3.1,-3.9 -5.8,-8.2 -8,-12.8 l -13.1,-0.4 -5.3,-31.5 12.3,-4.7 c 0.6,-5 1.7,-10 3.4,-14.7 l -9,-9.6 18.5,-26 12,5.4 c 3.9,-3.1 8.2,-5.8 12.8,-8 l 0.4,-13.1 31.5,-5.3 4.7,12.3 c 5,0.6 10,1.7 14.7,3.4 l 9.6,-9 26,18.5 -5.4,12 c 3.1,3.9 5.8,8.2 8,12.8 l 13.1,0.4 5.3,31.5 -12.3,4.7 c -0.6,5 -1.7,10 -3.4,14.7 l 9,9.6 -18.5,26 -12,-5.4 c -3.9,3.1 -8.2,5.8 -12.8,8 l -0.4,13.1 z m -20.8,-22.1 1.6,0.6 c 5.3,2 10.9,3.3 16.6,3.8 l 1.8,0.2 4.3,11.2 22.4,-3.8 0.4,-12 1.6,-0.7 c 5.2,-2.3 10.1,-5.4 14.5,-9.1 l 1.3,-1.1 11,4.9 13.2,-18.5 -8.2,-8.8 0.6,-1.6 c 2,-5.3 3.3,-10.9 3.8,-16.6 l 0.1,-1.8 11.2,-4.3 -3.8,-22.4 -12,-0.4 -0.7,-1.6 c -2.3,-5.2 -5.4,-10.1 -9.1,-14.5 l -1.1,-1.3 4.9,-11 -18.5,-13.2 -8.8,8.2 -1.6,-0.6 c -5.3,-2 -10.9,-3.3 -16.6,-3.8 l -1.8,-0.1 -4.3,-11.2 -22.4,3.8 -0.4,12 -1.6,0.7 c -5.2,2.3 -10.1,5.4 -14.5,9.1 l -1.3,1.1 -11,-4.9 -13,18.5 8.2,8.8 -0.6,1.6 c -2,5.3 -3.3,10.9 -3.8,16.6 l -0.1,1.8 -11.2,4.3 3.8,22.4 12,0.4 0.7,1.6 c 2.3,5.2 5.4,10.1 9.1,14.5 l 1.1,1.3 -4.9,11 18.5,13.2 z M 855,346.6 c -7.3,0 -14.6,-2.2 -21,-6.7 -16.3,-11.6 -20.1,-34.3 -8.5,-50.6 11.6,-16.3 34.3,-20.1 50.6,-8.5 16.3,11.6 20.1,34.3 8.5,50.6 -7.1,9.9 -18.3,15.2 -29.6,15.2 z m 0.1,-66.9 c -9.6,0 -19.1,4.5 -25,12.9 -4.8,6.7 -6.6,14.8 -5.3,22.9 1.4,8.1 5.8,15.1 12.5,19.9 13.8,9.8 33,6.6 42.8,-7.2 4.7,-6.7 6.6,-14.8 5.3,-22.9 -1.4,-8.1 -5.8,-15.1 -12.5,-19.9 -5.5,-3.9 -11.7,-5.7 -17.8,-5.7 z"
   id="path12"
   inkscape:connector-curvature="0"
   style="fill:#ffbe55" />
			</g>
			<path
   class="st1"
   d="m 365.3,614.3 c -4.8,-13.5 -10.3,-28.7 -4.2,-44.3 8.2,-21 -9.2,-31.8 -24.5,-41.5 -13.2,-8.2 -25.6,-16 -21.4,-28.9 4.6,-14 4.3,-24.8 -0.9,-31.9 -4.4,-6 -12.2,-9.2 -22.6,-9.1 -8.3,0.1 -15.7,-10.1 -23.6,-20.8 -9.3,-12.6 -18.8,-25.6 -30.8,-22.7 -2.1,0.5 -3.8,1.7 -4.8,3.6 -4.2,7.9 2.4,26.7 9.5,46.7 7.6,21.6 16.3,46 10.6,56.4 -6.2,11.4 5,21.8 16.9,32.9 12.6,11.7 26.9,25 23.1,41.7 -3.6,15.6 -4.4,21.4 -2.2,24.8 1.7,2.7 5.2,3.3 10.5,4.3 3.6,0.7 8.2,1.5 13.8,3.3 24.1,7.5 31.1,23.1 31.2,23.3 l 0.3,0.7 0.7,-0.1 c 11.6,-1.8 18.4,-5.1 21.6,-10.4 0.2,-0.3 0.3,-0.6 0.5,-0.9 3.4,-7.1 0.1,-16.4 -3.7,-27.1 z"
   id="path16"
   inkscape:connector-curvature="0"
   style="fill:#ffbe55" />
			<path
   class="st2"
   d="m 303.7,584.5 c 4,6.2 6.9,11.6 6.6,19.2 -0.2,7.1 -1.3,14.1 -1.9,21.1 -0.1,1.5 -0.2,2.9 -0.3,4.3 -2,-1.7 -3.9,-3.4 -5.9,-5.1 -0.9,-0.1 -1.8,-0.1 -2.8,-0.1 2.8,2.3 5.7,4.8 8.5,7.3 -0.3,4.9 -0.4,9.8 -0.4,14.7 0,2.9 -0.1,6 0.1,8.9 -2.6,-1.6 -5.3,-3.2 -7.8,-4.8 -7.8,-4.8 -15.1,-9.3 -20.7,-11.7 -4.3,-1.8 -9.1,-3.4 -13.7,-4.9 -12,-3.9 -24.3,-7.9 -28.4,-16.4 -2.1,-4.4 -1.9,-9.7 0.6,-16.1 6.3,-16.5 0.4,-19.3 -9.5,-24.1 -7.2,-3.5 -17,-8.2 -26.8,-20.1 -4.3,-5.2 -8.1,-9.7 -11.5,-13.6 -10.1,-11.9 -15.7,-18.4 -15,-22.2 0.2,-0.9 0.7,-1.7 1.7,-2.5 0.5,-0.4 1.1,-0.8 1.9,-1.2 3.8,-2.1 7.6,-0.5 11.9,1.3 5.8,2.4 12.9,5.5 22.8,0.4 7.8,-4 16.5,-7.7 21.7,-4.7 3.6,2 5.7,7.2 6.4,15.7 0.2,2.7 1.1,4.6 2.6,5.7 2.2,1.6 5.6,1.4 9.5,0.6 0,0 0,0 0,0 2.7,3.7 6.2,5.5 10.4,7 5.9,2.1 10.3,4 14.6,8.8 9.2,10.4 18.1,21 25.4,32.5 z"
   id="path18"
   inkscape:connector-curvature="0"
   style="fill:#2a94f4" />
			<path
   class="st3"
   d="m 271.8,601 c -6,-4 -11.2,-13.7 -16.2,-23.1 -6.8,-12.8 -13.9,-26 -23.6,-25.7 -15.6,0.4 -29.5,-18 -29.7,-18.1 l -1.3,1 c 0.6,0.8 14.6,19.2 31,18.8 8.7,-0.2 15.6,12.5 22.1,24.9 5.1,9.5 10.4,19.4 16.7,23.7 3.8,2.5 10.8,7.6 19.1,14.1 0,-0.7 0,-1.4 0,-2.1 -7.3,-6.1 -13.8,-10.7 -18.1,-13.5 z"
   id="path20"
   inkscape:connector-curvature="0"
   style="fill:#ffffff" />
			<path
   class="st1"
   d="m 798.8,724.9 c 0,0 9,-22.4 -7.4,-54.2 -16.5,-31.8 -29.8,-26.9 9.9,-51.4 39.7,-24.5 0.2,-101.5 34,-111.3 33.8,-9.8 63.1,-134.5 88.8,-118.6 25.7,15.9 -8.6,77 9.8,95.4 18.3,18.4 20.8,41.7 -17.1,60.6 -37.9,18.9 26.9,91.1 -24.5,113.1 -51.4,22 -36.6,108.3 -93.5,66.4 z"
   id="path22"
   inkscape:connector-curvature="0"
   style="fill:#ffbe55" />
			<g
   id="g26">
				<path
   class="st3"
   d="m 814.5,748.6 c -0.1,-0.3 -5.6,-28.9 11.9,-65.9 17.8,-37.7 26.3,-78.9 22.8,-110.3 -1.9,-17 9,-23.6 19.5,-30 10.4,-6.3 21.1,-12.9 20.5,-29.6 -0.5,-15.1 5.9,-50.5 6.1,-52 l 2.3,0.4 c -0.1,0.4 -6.6,36.7 -6.1,51.5 0.6,18.1 -10.7,25 -21.6,31.6 -10.4,6.3 -20.1,12.3 -18.4,27.8 3.6,31.7 -5,73.4 -23,111.5 -17.1,36.3 -11.8,64.2 -11.7,64.5 z"
   id="path24"
   inkscape:connector-curvature="0"
   style="fill:#ffffff" />
			</g>
			<path
   class="st4"
   d="m 951,562.8 c 14.3,-6.8 29.5,-3.7 21.6,10.6 -7.9,14.3 -19.7,15.4 -17.5,26.7 2.2,11.3 8,23.6 -10.6,30.8 -18.6,7.1 -27.3,5.9 -38.6,26.8 -11.4,20.9 -15.3,36.4 -34.8,31.4 -19.5,-5.1 -3.3,-30.8 6.8,-41.6 0,0 13.7,-11.6 13.5,-32.5 -0.2,-20.9 -8.8,-34.9 18.2,-33.5 27,1.2 31.7,-14.1 41.4,-18.7 z"
   id="path28"
   inkscape:connector-curvature="0"
   style="fill:#0e538c" />
			<g
   id="g32">
				<path
   class="st3"
   d="m 868,703.7 c 0.8,-2.7 19.6,-67.4 35,-74.4 15.7,-7.2 24.2,-26 27.9,-36.5 4.8,-13.7 25.3,-16.4 26.1,-16.5 l 0.3,2.3 c -0.2,0 -19.9,2.6 -24.2,14.9 -4.6,13.3 -13.4,30.7 -29.1,37.9 -14.4,6.6 -33.5,72.3 -33.7,73 z"
   id="path30"
   inkscape:connector-curvature="0"
   style="fill:#ffffff" />
			</g>
			<path
   class="st3"
   d="m 372.7,651.6 c -30.8,-7.7 -31.2,-24.3 -31.6,-40.3 -0.3,-13.1 -0.6,-25.5 -17.3,-33.1 C 301.7,568.1 301.2,549.4 300.7,532.9 300.3,520.6 300,509 290.8,502.7 268.7,487.6 250,451 249.8,450.6 l 1.7,-0.9 c 0.2,0.4 18.6,36.5 40.4,51.4 10,6.8 10.4,18.9 10.7,31.7 0.5,16.7 1,34.1 22,43.6 17.7,8.1 18.1,21.7 18.4,34.8 0.4,16 0.8,31.2 30.2,38.5 z"
   id="path34"
   inkscape:connector-curvature="0"
   style="fill:#ffffff" />
			<g
   id="g362">
				<g
   id="g38">
					<path
   class="st5"
   d="M 331.2,636.8 H 837.1 V 271.6 c 0,-5.2 -4.2,-9.5 -9.5,-9.5 H 340.7 c -5.2,0 -9.5,4.2 -9.5,9.5 z"
   id="path36"
   inkscape:connector-curvature="0"
   style="fill:#f7f7f7" />
				</g>
				<g
   id="g42">
					
						<rect
   x="349.10001"
   y="280.5"
   transform="rotate(-180,583.68455,424.60665)"
   class="st6"
   width="469.20001"
   height="288.29999"
   id="rect40"
   style="fill:#0b4870;stroke:#ffffff;stroke-width:0.5;stroke-miterlimit:10" />
				</g>
				<polygon
   class="st7"
   points="331.4,582.7 276,789.6 585.9,789.6 892.4,789.6 837.1,582.7 584.2,582.7 "
   id="polygon44"
   style="fill:#f2f2f2" />
				<path
   class="st6"
   d="m 350.5,619 h 31.1 c 1.3,0 2.3,1 2,2.1 l -3,13.5 c -0.2,0.8 -1,1.4 -2,1.4 H 347 c -1.3,0 -2.3,-1 -2,-2.2 l 3.5,-13.5 c 0.2,-0.7 1,-1.3 2,-1.3 z"
   id="path46"
   inkscape:connector-curvature="0"
   style="fill:#0b4870;stroke:#ffffff;stroke-width:0.5;stroke-miterlimit:10" />
				<polygon
   class="st6"
   points="416.2,636.1 392.2,636.1 395.8,619 419.3,619 "
   id="polygon48"
   style="fill:#0b4870;stroke:#ffffff;stroke-width:0.5;stroke-miterlimit:10" />
				<polygon
   class="st6"
   points="452.1,636.1 428.1,636.1 431,619 454.5,619 "
   id="polygon50"
   style="fill:#0b4870;stroke:#ffffff;stroke-width:0.5;stroke-miterlimit:10" />
				<polygon
   class="st6"
   points="488,636.1 464,636.1 466.3,619 489.8,619 "
   id="polygon52"
   style="fill:#0b4870;stroke:#ffffff;stroke-width:0.5;stroke-miterlimit:10" />
				<polygon
   class="st6"
   points="523.9,636.1 499.9,636.1 501.5,619 525,619 "
   id="polygon54"
   style="fill:#0b4870;stroke:#ffffff;stroke-width:0.5;stroke-miterlimit:10" />
				<polygon
   class="st6"
   points="559.8,636.1 535.8,636.1 536.7,619 560.2,619 "
   id="polygon56"
   style="fill:#0b4870;stroke:#ffffff;stroke-width:0.5;stroke-miterlimit:10" />
				<polygon
   class="st6"
   points="787.2,636.1 823.1,636.1 818.7,619 783.4,619 "
   id="polygon58"
   style="fill:#0b4870;stroke:#ffffff;stroke-width:0.5;stroke-miterlimit:10" />
				<polygon
   class="st6"
   points="751.3,636.1 775.3,636.1 771.7,619 748.2,619 "
   id="polygon60"
   style="fill:#0b4870;stroke:#ffffff;stroke-width:0.5;stroke-miterlimit:10" />
				<polygon
   class="st6"
   points="715.4,636.1 739.4,636.1 736.5,619 713,619 "
   id="polygon62"
   style="fill:#0b4870;stroke:#ffffff;stroke-width:0.5;stroke-miterlimit:10" />
				<polygon
   class="st6"
   points="679.5,636.1 703.5,636.1 701.2,619 677.7,619 "
   id="polygon64"
   style="fill:#0b4870;stroke:#ffffff;stroke-width:0.5;stroke-miterlimit:10" />
				<polygon
   class="st6"
   points="643.6,636.1 667.6,636.1 666,619 642.5,619 "
   id="polygon66"
   style="fill:#0b4870;stroke:#ffffff;stroke-width:0.5;stroke-miterlimit:10" />
				<polygon
   class="st6"
   points="607.7,636.1 631.7,636.1 630.8,619 607.3,619 "
   id="polygon68"
   style="fill:#0b4870;stroke:#ffffff;stroke-width:0.5;stroke-miterlimit:10" />
				<polygon
   class="st6"
   points="595.8,636.1 572,636.1 572,619 595.5,619 "
   id="polygon70"
   style="fill:#0b4870;stroke:#ffffff;stroke-width:0.5;stroke-miterlimit:10" />
				<polygon
   class="st6"
   points="386.4,666.4 336.4,666.4 340.2,648.8 389.2,648.8 "
   id="polygon72"
   style="fill:#0b4870;stroke:#ffffff;stroke-width:0.5;stroke-miterlimit:10" />
				<polygon
   class="st6"
   points="769.1,666.4 831,666.4 826.3,648.8 765.7,648.8 "
   id="polygon74"
   style="fill:#0b4870;stroke:#ffffff;stroke-width:0.5;stroke-miterlimit:10" />
				<polygon
   class="st6"
   points="732,666.4 756.8,666.4 753.5,648.8 729.3,648.8 "
   id="polygon76"
   style="fill:#0b4870;stroke:#ffffff;stroke-width:0.5;stroke-miterlimit:10" />
				<polygon
   class="st6"
   points="694.9,666.4 719.7,666.4 717.1,648.8 692.9,648.8 "
   id="polygon78"
   style="fill:#0b4870;stroke:#ffffff;stroke-width:0.5;stroke-miterlimit:10" />
				<polygon
   class="st6"
   points="657.9,666.4 682.6,666.4 680.7,648.8 656.5,648.8 "
   id="polygon80"
   style="fill:#0b4870;stroke:#ffffff;stroke-width:0.5;stroke-miterlimit:10" />
				<polygon
   class="st6"
   points="620.8,666.4 645.5,666.4 644.3,648.8 620.1,648.8 "
   id="polygon82"
   style="fill:#0b4870;stroke:#ffffff;stroke-width:0.5;stroke-miterlimit:10" />
				<polygon
   class="st6"
   points="379.3,697.6 328.2,697.6 332.8,680.1 383,680.1 "
   id="polygon84"
   style="fill:#0b4870;stroke:#ffffff;stroke-width:0.5;stroke-miterlimit:10" />
				<polygon
   class="st6"
   points="417.7,697.6 392.1,697.6 395.5,680.1 420.6,680.1 "
   id="polygon86"
   style="fill:#0b4870;stroke:#ffffff;stroke-width:0.5;stroke-miterlimit:10" />
				<polygon
   class="st6"
   points="621.3,680.1 622,697.6 430.4,697.6 433.2,680.1 458.3,680.1 "
   id="polygon88"
   style="fill:#0b4870;stroke:#ffffff;stroke-width:0.5;stroke-miterlimit:10" />
				<polygon
   class="st6"
   points="660.4,697.6 634.8,697.6 633.9,680.1 659,680.1 "
   id="polygon90"
   style="fill:#0b4870;stroke:#ffffff;stroke-width:0.5;stroke-miterlimit:10" />
				<polygon
   class="st6"
   points="698.7,697.6 673.1,697.6 671.5,680.1 696.6,680.1 "
   id="polygon92"
   style="fill:#0b4870;stroke:#ffffff;stroke-width:0.5;stroke-miterlimit:10" />
				<polygon
   class="st6"
   points="737,697.6 711.5,697.6 709.2,680.1 734.3,680.1 "
   id="polygon94"
   style="fill:#0b4870;stroke:#ffffff;stroke-width:0.5;stroke-miterlimit:10" />
				<polygon
   class="st6"
   points="775.3,697.6 749.8,697.6 746.8,680.1 771.9,680.1 "
   id="polygon96"
   style="fill:#0b4870;stroke:#ffffff;stroke-width:0.5;stroke-miterlimit:10" />
				<polygon
   class="st6"
   points="839.2,697.6 788.1,697.6 784.4,680.1 834.6,680.1 "
   id="polygon98"
   style="fill:#0b4870;stroke:#ffffff;stroke-width:0.5;stroke-miterlimit:10" />
				<polygon
   class="st6"
   points="583.9,666.4 608.4,666.4 608,648.8 583.9,648.8 "
   id="polygon100"
   style="fill:#0b4870;stroke:#ffffff;stroke-width:0.5;stroke-miterlimit:10" />
				<polygon
   class="st6"
   points="546.6,666.4 571.4,666.4 571.6,648.8 547.3,648.8 "
   id="polygon102"
   style="fill:#0b4870;stroke:#ffffff;stroke-width:0.5;stroke-miterlimit:10" />
				<polygon
   class="st6"
   points="509.5,666.4 534.3,666.4 535.2,648.8 510.9,648.8 "
   id="polygon104"
   style="fill:#0b4870;stroke:#ffffff;stroke-width:0.5;stroke-miterlimit:10" />
				<polygon
   class="st6"
   points="472.4,666.4 497.2,666.4 498.8,648.8 474.5,648.8 "
   id="polygon106"
   style="fill:#0b4870;stroke:#ffffff;stroke-width:0.5;stroke-miterlimit:10" />
				<polygon
   class="st6"
   points="435.3,666.4 460.1,666.4 462.4,648.8 438.1,648.8 "
   id="polygon108"
   style="fill:#0b4870;stroke:#ffffff;stroke-width:0.5;stroke-miterlimit:10" />
				<polygon
   class="st6"
   points="398.3,666.4 423,666.4 426,648.8 401.7,648.8 "
   id="polygon110"
   style="fill:#0b4870;stroke:#ffffff;stroke-width:0.5;stroke-miterlimit:10" />
				<polygon
   class="st6"
   points="367,593.1 363.3,608.3 351.6,608.3 355.6,593.1 "
   id="polygon112"
   style="fill:#0b4870;stroke:#ffffff;stroke-width:0.5;stroke-miterlimit:10" />
				<polygon
   class="st6"
   points="398.1,608.3 374.8,608.3 378.4,593.1 401.2,593.1 "
   id="polygon114"
   style="fill:#0b4870;stroke:#ffffff;stroke-width:0.5;stroke-miterlimit:10" />
				<polygon
   class="st6"
   points="432.9,608.3 409.7,608.3 412.7,593.1 435.5,593.1 "
   id="polygon116"
   style="fill:#0b4870;stroke:#ffffff;stroke-width:0.5;stroke-miterlimit:10" />
				<polygon
   class="st6"
   points="467.7,608.3 444.5,608.3 446.9,593.1 469.7,593.1 "
   id="polygon118"
   style="fill:#0b4870;stroke:#ffffff;stroke-width:0.5;stroke-miterlimit:10" />
				<polygon
   class="st6"
   points="502.5,608.3 479.3,608.3 481.1,593.1 503.9,593.1 "
   id="polygon120"
   style="fill:#0b4870;stroke:#ffffff;stroke-width:0.5;stroke-miterlimit:10" />
				<polygon
   class="st6"
   points="537.3,608.3 514.1,608.3 515.3,593.1 538.1,593.1 "
   id="polygon122"
   style="fill:#0b4870;stroke:#ffffff;stroke-width:0.5;stroke-miterlimit:10" />
				<polygon
   class="st6"
   points="572.1,608.3 548.9,608.3 549.5,593.1 572.3,593.1 "
   id="polygon124"
   style="fill:#0b4870;stroke:#ffffff;stroke-width:0.5;stroke-miterlimit:10" />
				<polygon
   class="st6"
   points="606.9,608.3 583.7,608.3 583.7,593.1 606.5,593.1 "
   id="polygon126"
   style="fill:#0b4870;stroke:#ffffff;stroke-width:0.5;stroke-miterlimit:10" />
				<polygon
   class="st6"
   points="641.7,608.3 618.5,608.3 617.9,593.1 640.7,593.1 "
   id="polygon128"
   style="fill:#0b4870;stroke:#ffffff;stroke-width:0.5;stroke-miterlimit:10" />
				<polygon
   class="st6"
   points="676.5,608.3 653.3,608.3 652.1,593.1 675,593.1 "
   id="polygon130"
   style="fill:#0b4870;stroke:#ffffff;stroke-width:0.5;stroke-miterlimit:10" />
				<polygon
   class="st6"
   points="711.4,608.3 688.2,608.3 686.4,593.1 709.2,593.1 "
   id="polygon132"
   style="fill:#0b4870;stroke:#ffffff;stroke-width:0.5;stroke-miterlimit:10" />
				<polygon
   class="st6"
   points="746.2,608.3 723,608.3 720.6,593.1 743.4,593.1 "
   id="polygon134"
   style="fill:#0b4870;stroke:#ffffff;stroke-width:0.5;stroke-miterlimit:10" />
				<polygon
   class="st6"
   points="781,608.3 757.8,608.3 754.8,593.1 777.6,593.1 "
   id="polygon136"
   style="fill:#0b4870;stroke:#ffffff;stroke-width:0.5;stroke-miterlimit:10" />
				<polygon
   class="st6"
   points="815.8,608.3 792.6,608.3 789,593.1 811.8,593.1 "
   id="polygon138"
   style="fill:#0b4870;stroke:#ffffff;stroke-width:0.5;stroke-miterlimit:10" />
				<path
   class="st8"
   d="M 876.3,805.7 H 292.1 c -8.9,0 -16.1,-7.2 -16.1,-16.1 v 0 h 616.4 v 0 c 0,8.9 -7.2,16.1 -16.1,16.1 z"
   id="path140"
   inkscape:connector-curvature="0"
   style="fill:#d3d3d3" />
				<path
   class="st8"
   d="m 655.9,722.7 c -0.6,-3.6 -3.8,-6.3 -7.4,-6.3 H 584.3 520 c -3.7,0 -6.8,2.7 -7.4,6.3 l -8,48.5 c -0.8,4.6 2.8,8.8 7.4,8.8 h 72.2 72.2 c 4.7,0 8.2,-4.2 7.4,-8.8 z"
   id="path142"
   inkscape:connector-curvature="0"
   style="fill:#d3d3d3" />
				<g
   id="g360">
					<g
   id="g146">
						<rect
   x="380.70001"
   y="304.89999"
   class="st5"
   width="52.299999"
   height="5.4000001"
   id="rect144"
   style="fill:#f7f7f7" />
					</g>
					<g
   id="g150">
						<rect
   x="447.70001"
   y="345.20001"
   class="st5"
   width="37.700001"
   height="5.4000001"
   id="rect148"
   style="fill:#f7f7f7" />
					</g>
					<g
   id="g154">
						<rect
   x="491.29999"
   y="345.20001"
   class="st5"
   width="25"
   height="5.4000001"
   id="rect152"
   style="fill:#f7f7f7" />
					</g>
					<g
   id="g158">
						<rect
   x="381.29999"
   y="446.60001"
   class="st5"
   width="25"
   height="5.4000001"
   id="rect156"
   style="fill:#f7f7f7" />
					</g>
					<g
   id="g162">
						<rect
   x="521.29999"
   y="345.20001"
   class="st5"
   width="60.5"
   height="5.4000001"
   id="rect160"
   style="fill:#f7f7f7" />
					</g>
					<g
   id="g166">
						<rect
   x="381.29999"
   y="426.29999"
   class="st5"
   width="38.900002"
   height="5.4000001"
   id="rect164"
   style="fill:#f7f7f7" />
					</g>
					<g
   id="g170">
						<rect
   x="435.5"
   y="466.70001"
   class="st5"
   width="23.700001"
   height="5.4000001"
   id="rect168"
   style="fill:#f7f7f7" />
					</g>
					<g
   id="g174">
						<rect
   x="381.29999"
   y="466.70001"
   class="st5"
   width="47"
   height="5.4000001"
   id="rect172"
   style="fill:#f7f7f7" />
					</g>
					<g
   id="g178">
						<rect
   x="381.29999"
   y="486.89999"
   class="st5"
   width="25.9"
   height="5.4000001"
   id="rect176"
   style="fill:#f7f7f7" />
					</g>
					<g
   id="g182">
						<rect
   x="443.20001"
   y="304.89999"
   class="st5"
   width="37.099998"
   height="5.4000001"
   id="rect180"
   style="fill:#f7f7f7" />
					</g>
					<g
   id="g186">
						<rect
   x="443.20001"
   y="365.39999"
   class="st5"
   width="37.099998"
   height="5.4000001"
   id="rect184"
   style="fill:#f7f7f7" />
					</g>
					<g
   id="g190">
						<rect
   x="424.60001"
   y="385.5"
   class="st5"
   width="15.9"
   height="5.4000001"
   id="rect188"
   style="fill:#f7f7f7" />
					</g>
					<g
   id="g194">
						<rect
   x="408.79999"
   y="406"
   class="st5"
   width="35.599998"
   height="5.4000001"
   id="rect192"
   style="fill:#f7f7f7" />
					</g>
					<g
   id="g198">
						<rect
   x="449.79999"
   y="406"
   class="st5"
   width="49.200001"
   height="5.4000001"
   id="rect196"
   style="fill:#f7f7f7" />
					</g>
					<g
   id="g202">
						<rect
   x="381.29999"
   y="385.70001"
   class="st5"
   width="37.099998"
   height="5.4000001"
   id="rect200"
   style="fill:#f7f7f7" />
					</g>
					<g
   id="g206">
						<rect
   x="381.29999"
   y="406"
   class="st5"
   width="22"
   height="5.4000001"
   id="rect204"
   style="fill:#f7f7f7" />
					</g>
					<g
   id="g210">
						<rect
   x="448"
   y="385.70001"
   class="st5"
   width="20.799999"
   height="5.4000001"
   id="rect208"
   style="fill:#f7f7f7" />
					</g>
					<g
   id="g214">
						<rect
   x="382"
   y="507"
   class="st5"
   width="20.799999"
   height="5.4000001"
   id="rect212"
   style="fill:#f7f7f7" />
					</g>
					<g
   id="g218">
						<rect
   x="381.20001"
   y="345.20001"
   class="st5"
   width="37.099998"
   height="5.4000001"
   id="rect216"
   style="fill:#f7f7f7" />
					</g>
					<g
   id="g222">
						<rect
   x="414"
   y="446.60001"
   class="st5"
   width="37.099998"
   height="5.4000001"
   id="rect220"
   style="fill:#f7f7f7" />
					</g>
					<g
   id="g226">
						<rect
   x="414.5"
   y="486.89999"
   class="st5"
   width="37.099998"
   height="5.4000001"
   id="rect224"
   style="fill:#f7f7f7" />
					</g>
					<g
   id="g230">
						<rect
   x="480.39999"
   y="486.89999"
   class="st5"
   width="37.099998"
   height="5.4000001"
   id="rect228"
   style="fill:#f7f7f7" />
					</g>
					<g
   id="g234">
						<rect
   x="381.20001"
   y="365.39999"
   class="st5"
   width="52.900002"
   height="5.4000001"
   id="rect232"
   style="fill:#f7f7f7" />
					</g>
					<g
   id="g238">
						<rect
   x="629.09998"
   y="304.89999"
   class="st5"
   width="37.099998"
   height="5.4000001"
   id="rect236"
   style="fill:#f7f7f7" />
					</g>
					<g
   id="g242">
						<rect
   x="496.89999"
   y="507"
   class="st5"
   width="37.099998"
   height="5.4000001"
   id="rect240"
   style="fill:#f7f7f7" />
					</g>
					<g
   id="g246">
						<rect
   x="677.70001"
   y="304.89999"
   class="st5"
   width="24.799999"
   height="5.4000001"
   id="rect244"
   style="fill:#f7f7f7" />
					</g>
					<g
   id="g250">
						<rect
   x="761.79999"
   y="325.10001"
   class="st5"
   width="24.799999"
   height="5.4000001"
   id="rect248"
   style="fill:#f7f7f7" />
					</g>
					<g
   id="g254">
						<rect
   x="490.29999"
   y="304.89999"
   class="st5"
   width="47.299999"
   height="5.4000001"
   id="rect252"
   style="fill:#f7f7f7" />
					</g>
					<g
   id="g258">
						<rect
   x="674.5"
   y="325.10001"
   class="st5"
   width="47.299999"
   height="5.4000001"
   id="rect256"
   style="fill:#f7f7f7" />
					</g>
					<g
   id="g262">
						<rect
   x="616.5"
   y="345.20001"
   class="st5"
   width="47.299999"
   height="5.4000001"
   id="rect260"
   style="fill:#f7f7f7" />
					</g>
					<g
   id="g266">
						<rect
   x="555"
   y="365.39999"
   class="st5"
   width="47.299999"
   height="5.4000001"
   id="rect264"
   style="fill:#f7f7f7" />
					</g>
					<g
   id="g270">
						<rect
   x="669.70001"
   y="345.20001"
   class="st5"
   width="33.599998"
   height="5.4000001"
   id="rect268"
   style="fill:#f7f7f7" />
					</g>
					<g
   id="g274">
						<rect
   x="572.5"
   y="304.89999"
   class="st5"
   width="47.299999"
   height="5.4000001"
   id="rect272"
   style="fill:#f7f7f7" />
					</g>
					<g
   id="g278">
						<rect
   x="518.59998"
   y="365.39999"
   class="st5"
   width="27.700001"
   height="5.4000001"
   id="rect276"
   style="fill:#f7f7f7" />
					</g>
					<g
   id="g282">
						<rect
   x="496.89999"
   y="446.89999"
   class="st5"
   width="27.700001"
   height="5.4000001"
   id="rect280"
   style="fill:#f7f7f7" />
					</g>
					<g
   id="g286">
						<rect
   x="546.29999"
   y="304.89999"
   class="st5"
   width="17.299999"
   height="5.4000001"
   id="rect284"
   style="fill:#f7f7f7" />
					</g>
					<g
   id="g290">
						<rect
   x="490.29999"
   y="365.39999"
   class="st5"
   width="17.299999"
   height="5.4000001"
   id="rect288"
   style="fill:#f7f7f7" />
					</g>
					<g
   id="g294">
						<rect
   x="733.20001"
   y="325.10001"
   class="st5"
   width="17.299999"
   height="5.4000001"
   id="rect292"
   style="fill:#f7f7f7" />
					</g>
					<g
   id="g298">
						<rect
   x="380.70001"
   y="325.10001"
   class="st5"
   width="27.1"
   height="5.4000001"
   id="rect296"
   style="fill:#f7f7f7" />
					</g>
					<g
   id="g302">
						<rect
   x="453"
   y="426.39999"
   class="st5"
   width="21.4"
   height="5.4000001"
   id="rect300"
   style="fill:#f7f7f7" />
					</g>
					<g
   id="g306">
						<rect
   x="414.5"
   y="325.10001"
   class="st5"
   width="8.6999998"
   height="5.4000001"
   id="rect304"
   style="fill:#f7f7f7" />
					</g>
					<g
   id="g310">
						<rect
   x="593.90002"
   y="325.10001"
   class="st5"
   width="72.300003"
   height="5.4000001"
   id="rect308"
   style="fill:#f7f7f7" />
					</g>
					<g
   id="g314">
						<rect
   x="524.59998"
   y="486.89999"
   class="st5"
   width="72.300003"
   height="5.4000001"
   id="rect312"
   style="fill:#f7f7f7" />
					</g>
					<g
   id="g318">
						<rect
   x="429.60001"
   y="325.10001"
   class="st5"
   width="8.8999996"
   height="5.4000001"
   id="rect316"
   style="fill:#f7f7f7" />
					</g>
					<g
   id="g322">
						<rect
   x="563.59998"
   y="325.10001"
   class="st5"
   width="23.6"
   height="5.4000001"
   id="rect320"
   style="fill:#f7f7f7" />
					</g>
					<g
   id="g326">
						<rect
   x="587.29999"
   y="345.20001"
   class="st5"
   width="23.6"
   height="5.4000001"
   id="rect324"
   style="fill:#f7f7f7" />
					</g>
					<g
   id="g330">
						<rect
   x="465.70001"
   y="507"
   class="st5"
   width="23.6"
   height="5.4000001"
   id="rect328"
   style="fill:#f7f7f7" />
					</g>
					<g
   id="g334">
						<rect
   x="507.10001"
   y="325.10001"
   class="st5"
   width="50.299999"
   height="5.4000001"
   id="rect332"
   style="fill:#f7f7f7" />
					</g>
					<g
   id="g338">
						<rect
   x="460.20001"
   y="446.89999"
   class="st5"
   width="29.4"
   height="5.4000001"
   id="rect336"
   style="fill:#f7f7f7" />
					</g>
					<g
   id="g342">
						<rect
   x="458.39999"
   y="486.89999"
   class="st5"
   width="14.7"
   height="5.4000001"
   id="rect340"
   style="fill:#f7f7f7" />
					</g>
					<g
   id="g346">
						<rect
   x="482.60001"
   y="325.10001"
   class="st5"
   width="17.299999"
   height="5.4000001"
   id="rect344"
   style="fill:#f7f7f7" />
					</g>
					<g
   id="g350">
						<rect
   x="424.39999"
   y="345.20001"
   class="st5"
   width="17.299999"
   height="5.4000001"
   id="rect348"
   style="fill:#f7f7f7" />
					</g>
					<g
   id="g354">
						<rect
   x="427.79999"
   y="426.39999"
   class="st5"
   width="17.299999"
   height="5.4000001"
   id="rect352"
   style="fill:#f7f7f7" />
					</g>
					<g
   id="g358">
						<rect
   x="445.89999"
   y="325.10001"
   class="st5"
   width="30.200001"
   height="5.4000001"
   id="rect356"
   style="fill:#f7f7f7" />
					</g>
				</g>
			</g>
			<g
   id="g370">
				<g
   id="g368">
					<g
   id="g366">
						<path
   class="st9"
   d="m 699.1,365.6 c 0,0 8.8,14.9 12.5,17.3 5,3.3 1.9,6.6 -0.5,6.7 -2.4,0 -14.6,0.9 -17.3,-2.2 -2.7,-3.1 -4,-12.2 -6.5,-14.6 -2.5,-2.4 -5.1,-11.9 1.2,-14.2 5.5,-2.1 10.6,7 10.6,7 z"
   id="path364"
   inkscape:connector-curvature="0"
   style="fill:#ffb750" />
					</g>
				</g>
			</g>
			<g
   id="g378">
				<g
   id="g376">
					<g
   id="g374">
						<path
   class="st10"
   d="m 695.2,359.1 c 0,0 10.1,17.5 11.8,20 1.7,2.6 -3.3,2.6 -6.4,1.4 -3.1,-1.2 -10.9,-13.7 -12,-16 -1.3,-2.7 -0.2,-5.8 -0.2,-5.8 z"
   id="path372"
   inkscape:connector-curvature="0"
   style="fill:#ffe3ca" />
					</g>
				</g>
			</g>
			<g
   id="g386">
				<g
   id="g384">
					<g
   id="g382">
						<polygon
   class="st9"
   points="688.6,386.4 688.2,373.5 685,368.4 687.4,386.3 "
   id="polygon380"
   style="fill:#ffb750" />
					</g>
				</g>
			</g>
			<g
   id="g394">
				<g
   id="g392">
					<g
   id="g390">
						<path
   class="st9"
   d="m 611.8,365.6 c 0,0 8.8,14.9 12.5,17.3 5,3.3 1.9,6.6 -0.5,6.7 -2.4,0 -14.6,0.9 -17.3,-2.2 -2.7,-3.1 -4,-12.2 -6.5,-14.6 -2.5,-2.4 -5.2,-12.2 1.2,-14.2 5.6,-1.8 10.6,7 10.6,7 z"
   id="path388"
   inkscape:connector-curvature="0"
   style="fill:#ffb750" />
					</g>
				</g>
			</g>
			<g
   id="g402">
				<g
   id="g400">
					<g
   id="g398">
						<path
   class="st10"
   d="m 608.5,359.1 c 0,0 9.5,17.4 11.3,20 1.7,2.6 -3.3,2.6 -6.4,1.4 -3.1,-1.2 -10.9,-13.7 -12,-16 -1.3,-2.7 -0.2,-5.8 -0.2,-5.8 z"
   id="path396"
   inkscape:connector-curvature="0"
   style="fill:#ffe3ca" />
					</g>
				</g>
			</g>
			<g
   id="g410">
				<g
   id="g408">
					<g
   id="g406">
						<polygon
   class="st9"
   points="601.4,386.4 601,373.5 597.8,368.4 600.1,386.3 "
   id="polygon404"
   style="fill:#ffb750" />
					</g>
				</g>
			</g>
			<g
   id="g418">
				<g
   id="g416">
					<g
   id="g414">
						<path
   class="st10"
   d="m 572.8,229.9 79.6,36.3 c 0,0 8.9,2.9 9.9,12.8 3.1,30.8 26.1,79.6 26.1,79.6 7.4,3.6 6.8,0.5 6.8,0.5 -4.7,-15 -10.3,-76.6 -12.4,-101.3 -0.4,-5.2 -0.7,-8.8 -0.8,-10 0,-0.8 -0.9,-1.8 -2.4,-3 -10.9,-8.9 -55.9,-27.2 -55.9,-27.2 -33.5,-0.9 -50.9,12.3 -50.9,12.3 z"
   id="path412"
   inkscape:connector-curvature="0"
   style="fill:#ffe3ca" />
					</g>
				</g>
			</g>
			<g
   id="g426">
				<g
   id="g424">
					<g
   id="g422">
						<path
   class="st10"
   d="m 557.8,245.5 c 2.5,21.5 33.2,19.1 33.2,19.1 h 37.2 c 0,0 -9.8,21.8 -13.6,40.1 -4,19.5 -13.5,53.9 -13.5,53.9 0,0 0.6,1.2 7.4,0.5 0,0 29.2,-58.2 40.4,-72.9 2.4,-3.1 9.3,-20.3 10.5,-30.5 0.4,-3.4 0.2,-6.1 -1.1,-7.2 -1.3,-1.1 -4.3,-3.1 -8.2,-5.6 -11.7,-7.4 -31.9,-18.7 -43.2,-21.2 -15.1,-3.4 -39,-9.8 -39,-9.8 0,0 -12.6,12.1 -10.1,33.6 z"
   id="path420"
   inkscape:connector-curvature="0"
   style="fill:#ffe3ca" />
					</g>
				</g>
			</g>
			<g
   id="g430">
				<path
   class="st4"
   d="m 583.1,79.7 c 0,0 -5.6,-10.6 -2.9,-21.8 2.7,-11.3 13.2,-22.5 28.5,-17.3 15.3,5.2 27.7,17 18.5,30.8 -9.2,13.7 8.3,20 3.8,26.5 -4.5,6.5 -2.8,13.4 -0.9,14.9 1.9,1.5 8,6.9 7.3,13.4 -0.7,6.4 -29.7,-18.7 -29.7,-18.7 0,0 -15.7,-31.9 -24.6,-27.8 z"
   id="path428"
   inkscape:connector-curvature="0"
   style="fill:#0e538c" />
			</g>
			<g
   id="g434">
				<path
   class="st11"
   d="m 629.8,214.9 c 0,0 -2.3,11.2 -61.8,-2.9 0,0 19.9,-6.6 61.8,2.9 z"
   id="path432"
   inkscape:connector-curvature="0"
   style="fill:#eb4747" />
			</g>
			<g
   id="g440">
				<g
   id="g438">
					<path
   class="st3"
   d="m 567.3,215.1 c -0.9,1.8 -1.8,3.5 -2.8,5.3 21.7,0.6 43.5,1.3 65.2,1.9 -3.4,-11.5 -2.3,-27.1 -1.7,-38.9 0.7,-14.5 8.7,-24.5 7.9,-39.1 4.3,0.7 5,0.8 9.3,1.5 -6.6,-18.8 -8.8,-28.1 -29.3,-35.3 -6.7,-2.4 -11,-2.8 -18.2,-2.2 -23.7,2 -30.8,2.2 -42.5,23.7 18.2,2.9 15.2,9.4 20.7,27.6 2.7,8.8 5.5,18.7 4.1,28 -1.4,9.1 -12.7,19.2 -12.7,27.5 z"
   id="path436"
   inkscape:connector-curvature="0"
   style="fill:#ffffff" />
				</g>
			</g>
			<g
   id="g446">
				<g
   id="g444">
					<path
   class="st10"
   d="m 605.1,115 c -9.7,-1.8 -7.6,-7.2 -7.6,-7.2 0,0 0.4,-3 0.6,-6.9 0,-1 0.1,-2 0.1,-3.1 0,-1.6 -0.1,-3.2 -0.3,-4.8 -0.8,-6.5 17.6,-2.6 17.6,-2.6 0,0 -1.1,13.2 1.5,17.1 2.5,4 -2.2,9.4 -11.9,7.5 z"
   id="path442"
   inkscape:connector-curvature="0"
   style="fill:#ffe3ca" />
				</g>
			</g>
			<g
   id="g452">
				<g
   id="g450">
					<path
   class="st10"
   d="m 586.6,107.8 c 0,0 19.6,22.6 26.8,27.8 0,0 8.3,-7.5 3.2,-27.3 0,0 -9.4,-4.8 -30,-0.5 z"
   id="path448"
   inkscape:connector-curvature="0"
   style="fill:#ffe3ca" />
				</g>
			</g>
			<g
   id="g456">
				<path
   class="st10"
   d="m 587.2,53.4 c 0,0 -10.2,19.6 -0.1,38.1 10.1,18.5 29.9,-8.1 31.1,-11.2 1.3,-3.1 8.1,-20.8 -5.4,-26.1 -13.5,-5.4 -22.7,-6.1 -25.6,-0.8 z"
   id="path454"
   inkscape:connector-curvature="0"
   style="fill:#ffe3ca" />
			</g>
			<g
   id="g460">
				<path
   class="st12"
   d="m 606.8,93.5 c 0,0 -1.8,3.9 -8.7,7.4 0,-1 0.1,-2 0.1,-3.1 0,0 4.7,-0.5 8.6,-4.3 z"
   id="path458"
   inkscape:connector-curvature="0"
   style="fill:#fcd2b1" />
			</g>
			<g
   id="g464">
				<path
   class="st10"
   d="m 504.1,197.5 c 0,0 -4.8,2.1 -7.1,1.2 -2.3,-1 -5.8,-1.2 -6.9,-1.2 -1.5,0 -6.2,-1.7 -6.1,0.2 0.1,1.8 7.6,3.1 9.1,3.7 1.5,0.6 -4.6,3.9 -5.2,5.4 -0.6,1.5 6.4,11.3 10.3,8.5 3.9,-2.8 6,-8.4 6.8,-8.8 0.8,-0.4 2.9,-1.9 2.9,-1.9 z"
   id="path462"
   inkscape:connector-curvature="0"
   style="fill:#ffe3ca" />
			</g>
			<g
   id="g468">
				<path
   class="st10"
   d="m 488.7,205.9 c 0,0 -11.3,9.4 -11.5,10.7 -0.2,1.3 0.4,1.9 1.5,1 1.1,-0.8 11.2,-8.8 11.2,-8.8 0,0 -11.3,13.4 -11.7,14.4 -0.2,0.6 0.9,1.8 1.5,1.4 0.6,-0.4 12.7,-13 12.7,-13 0,0 -10.6,12.5 -10.6,13.5 -0.1,0.8 1.2,1.7 2.1,0.8 0.9,-0.9 11.4,-11.9 11.4,-11.9 0,0 -7.1,9.6 -6.6,10.5 0.3,0.5 1.2,1.6 2.9,-0.9 1.7,-2.5 6.5,-8.1 6.5,-8.1 z"
   id="path466"
   inkscape:connector-curvature="0"
   style="fill:#ffe3ca" />
			</g>
			<g
   id="g474">
				<g
   id="g472">
					<path
   class="st4"
   d="M 624.3,264.5 H 591 c 0,0 -30.7,2.5 -33.2,-19.1 -2.5,-21.5 10.1,-33.5 10.1,-33.5 0,0 16.2,4.3 30.4,7.7 7.1,-1.5 15.6,-2.5 25.6,-2.2 0,0 60,19.8 58.2,30.3 0,0.1 -25.1,-13.3 -57.8,16.8 z"
   id="path470"
   inkscape:connector-curvature="0"
   style="fill:#0e538c" />
				</g>
			</g>
			<g
   id="g478">
				<polygon
   class="st7"
   points="634.1,242.6 602.6,227.3 666.2,226.3 "
   id="polygon476"
   style="fill:#f2f2f2" />
			</g>
			<g
   id="g482">
				<path
   class="st3"
   d="m 622.4,219.1 c 0,0 -14.3,5.5 -31.8,0.5 l -0.8,-6.5 36.1,2 z"
   id="path480"
   inkscape:connector-curvature="0"
   style="fill:#ffffff" />
			</g>
			<g
   id="g486">
				<polygon
   class="st8"
   points="602.6,227.3 636.6,239.5 634.1,242.6 602.6,230.4 "
   id="polygon484"
   style="fill:#d3d3d3" />
			</g>
			<g
   id="g496">
				<g
   id="g490">
					<path
   class="st1"
   d="m 622.1,222.2 c -0.2,2.3 2.2,4 4.4,3.1 l 3.7,-1.6 c 1.1,-0.5 1.8,-1.6 1.6,-2.8 -1.5,-9.6 -4.8,-47 0,-53.5 1.8,-2.4 2.9,-4.5 3.5,-6.3 3.2,8.2 7.1,18.8 8.7,24.5 l 30,40 10.1,2.6 c -12.6,-30.3 -22.7,-46.3 -22.7,-46.3 -2,-5.3 -7.6,-21.3 -12.6,-35.5 -3.2,-9 -6,-17.3 -7.6,-21.7 -0.8,-2.3 -2.3,-4.2 -4.4,-5.4 -4.7,-2.8 -12.4,-7.2 -19.4,-10.6 0,0 -0.1,0 -0.1,0 -0.2,-0.1 -0.4,-0.2 -0.7,-0.3 0,0 0,0 0,0 0,0 0,0 0,0 13.4,20.1 8.2,77.2 5.5,113.8 0,-0.1 0,-0.1 0,0 z"
   id="path488"
   inkscape:connector-curvature="0"
   style="fill:#ffbe55" />
				</g>
				<g
   id="g494">
					<path
   class="st1"
   d="m 572.5,110 c -4.3,0.7 -14.9,11 -20.5,21.4 -6.4,11.9 -13,25.4 -17.9,29.8 -9,8.2 -34.3,37.1 -35.5,36.4 -0.5,-0.3 6.9,8.6 7.9,9 0.5,0.2 41.5,-35.4 45.5,-40.8 3.7,-5.1 13.7,-26.7 16.7,-26.2 0,0 0,0 0,0 0,0 0,0 0,0 0.2,0.5 3.9,8.4 7.3,19.9 0.1,0.2 0.1,0.4 0.2,0.6 2.4,8 2.2,16.8 0.9,26.6 -1,7.4 -6.5,19.5 -9.8,25.4 -0.4,0.7 -0.3,2.1 0.1,3.1 v 0 c 0.3,0.6 0.6,1.1 1.1,1.3 l 12.1,4.5 2.8,1 c 2,0.8 4.2,0.4 5.8,-0.8 1.3,-0.9 2.3,-2.4 2.5,-4.2 2.7,-20.6 6.1,-41.7 8.8,-49.6 11.9,-34.8 -4.6,-61 -4.6,-61 0,0 -19.6,2.2 -23.4,3.6 z"
   id="path492"
   inkscape:connector-curvature="0"
   style="fill:#ffbe55" />
				</g>
			</g>
			<g
   id="g500">
				<polygon
   class="st1"
   points="713.9,192 695.9,239.6 634.1,242.6 653,191 "
   id="polygon498"
   style="fill:#ffbe55" />
			</g>
			<g
   id="g504">
				<path
   class="st13"
   d="m 672.5,213.8 c -1.9,3.7 -1.3,7.8 1.3,9 2.6,1.3 6.1,-0.7 8,-4.4 1.9,-3.7 1.3,-7.8 -1.3,-9 -2.6,-1.3 -6.2,0.7 -8,4.4 z"
   id="path502"
   inkscape:connector-curvature="0"
   style="fill:#f2f0f0" />
			</g>
			<path
   class="st4"
   d="m 635.5,116.3 c -4.5,-6.8 -7.7,-12.2 -8.1,-21.9 -0.3,-6.4 -1.7,-15.1 -6.1,-19.4 4.6,-12 -0.8,-15.6 -3,-19.5 -2.7,-4.9 -22.7,-16.7 -30.6,-4.3 -7.9,12.3 -5.1,25.2 -5.1,25.2 0.8,-6.8 7.8,-16 7.8,-16 1.1,7.1 15.8,18.7 22.2,23.4 -0.1,0.1 -0.2,0.3 -0.2,0.4 -3.6,5.2 0.9,10.4 1.7,15.9 0.8,5.5 -15.1,20.3 2.6,27.7 17.7,7.5 23.3,-4.8 18.8,-11.5 z"
   id="path506"
   inkscape:connector-curvature="0"
   style="fill:#0e538c" />
			<g
   id="g520">
				<g
   id="g514">
					<path
   class="st4"
   d="m 313.6,698.8 c 0,0 -0.4,4.2 -20,4.2 -19.6,0 -48.1,-5.1 -48.1,-5.1 l 45.5,-4.4 c 0,0 17.5,-0.9 22.6,5.3 z"
   id="path508"
   inkscape:connector-curvature="0"
   style="fill:#0e538c" />
					<path
   class="st4"
   d="m 263.7,700.3 c -11.1,0 -15.8,5.7 -20.2,7.5 -4.4,1.8 -8.8,4.5 -8.8,4.4 2.5,-4.9 6,-5 7.8,-6.6 1.8,-1.6 1.3,-0.8 -2.6,-1.1 -2.2,-0.2 -6.2,3.9 -9,6.2 -2.5,1.9 -4,2.1 -4,2.1 0,0 2.9,-4.1 6.5,-7.4 4.4,-4 9.9,-7.3 11.2,-7.9 2.4,-1 9.8,-1.2 15,-0.5 6,0.8 12.1,3.3 4.1,3.3 z"
   id="path510"
   inkscape:connector-curvature="0"
   style="fill:#0e538c" />
					<path
   class="st4"
   d="m 245.3,697.7 c 0,0 -8.5,2.2 -10,3.4 -1,0.8 -5.4,5.5 -5.4,5.5 0,0 3.2,-0.5 5,-2.3 1.9,-1.9 10.4,-6.6 10.4,-6.6 z"
   id="path512"
   inkscape:connector-curvature="0"
   style="fill:#0e538c" />
				</g>
				<path
   class="st4"
   d="m 297.5,690.2 c 0,0 21.4,1.4 19.9,14.6 -0.8,7.5 -5.7,10.1 -12.2,9.5 -12,-1 -25.6,-2.8 -25.6,-2.8 L 273.5,691 Z"
   id="path516"
   inkscape:connector-curvature="0"
   style="fill:#0e538c" />
				<path
   class="st4"
   d="m 302,692 21,-67.7 c 0,0 3.1,-9.9 8.2,-8.1 7.3,2.7 3.7,10.8 3.1,15.6 -1.3,9.8 -0.4,14.1 -7.2,37.7 -4.2,14.6 -7.8,31.4 -11.4,41 -2.5,6.6 -6.8,-2.9 -13.3,-5.5 -12.2,-4.9 -0.4,-13 -0.4,-13 z"
   id="path518"
   inkscape:connector-curvature="0"
   style="fill:#0e538c" />
			</g>
			<path
   class="st4"
   d="m 303.6,587.5 c 4.1,11.8 16.8,17.9 28.5,13.6 11.6,-4.3 17.8,-17.4 13.7,-29.2 -4.1,-11.8 -16.8,-17.9 -28.5,-13.6 -11.6,4.3 -17.8,17.4 -13.7,29.2 z"
   id="path522"
   inkscape:connector-curvature="0"
   style="fill:#0e538c" />
			<path
   class="st4"
   d="m 280.6,588.6 c 6.4,9.6 19.2,12 28.5,5.4 l -1.3,-11.3 c 9.3,-6.7 11.6,-19.9 5.2,-29.5 l -4.4,-6.5 c -6.4,-9.6 -19.2,-12 -28.5,-5.4 l -4.2,3 c -9.3,6.7 -11.6,19.9 -5.2,29.5 z"
   id="path524"
   inkscape:connector-curvature="0"
   style="fill:#0e538c" />
			<path
   class="st10"
   d="m 272.2,557.1 c 1.1,1.6 2.3,3.1 3.7,4.6 9.2,10 21.5,13.8 29.3,9.7 3.6,4.9 7.7,8.8 11.4,11.8 4.3,3.5 15.3,4.9 15.3,4.9 6.4,7 -17.6,47.9 -19.3,47.7 -3.5,-0.3 -8,-22.9 -4.7,-31.1 1.5,-3.7 3.9,-8.1 3.2,-10.1 -2.5,-6.9 -6,-5.7 -6,-5.7 0,0 -4.6,5.4 -8.2,5.2 -3.7,-0.3 -10.1,-6.1 -10.4,-6.2 -1.1,-0.9 -2.1,-2 -3,-3.3 l -9.6,-14.4 c -2.5,-4 -3.1,-8.8 -1.7,-13.1 z"
   id="path526"
   inkscape:connector-curvature="0"
   style="fill:#ffe3ca" />
			<path
   class="st13"
   d="m 345.6,729.4 c 0,0 -7.8,9.4 -10.2,10.4 -3.2,1.4 -13,-1.6 -13,-1.6 0,0 -2.6,-43.1 -5.6,-59.9 -3,-16.8 -7.4,-21.2 -7.6,-26.5 -0.3,-8.5 -7.4,-11.9 -6.2,-18.5 1.2,-6.6 3.3,-30.2 4,-27.1 6.1,26.8 13.6,4.5 15.3,1 0.9,-1.9 23.3,122.2 23.3,122.2 z"
   id="path528"
   inkscape:connector-curvature="0"
   style="fill:#f2f0f0" />
			<path
   class="st4"
   d="m 310.1,598.2 c 0,0 -9.5,10.4 -8.8,14.5 0.6,4.1 -4.1,16.9 0.6,34.7 5.3,20.3 8.1,34.1 9.1,47.4 1,13.3 -3.5,25.5 -1.7,41.8 1.4,12.8 4.3,13.5 4.3,13.5 0,0 5.7,1.4 9.7,-3.6 4,-4.9 -2,-48.5 -4,-59.3 -2,-10.9 -8.4,-36.3 -10.1,-43.8 -2.1,-9.2 -1.7,-18.6 -1.6,-21.3 0.5,-9.5 1.7,-15.4 2.7,-19 0.1,-0.5 0.6,-6.1 -0.2,-4.9 z"
   id="path530"
   inkscape:connector-curvature="0"
   style="fill:#0e538c" />
			<path
   class="st4"
   d="m 326.7,610.4 c 5.2,15 21.4,22.7 36.2,17.2 14.8,-5.5 22.6,-22.1 17.4,-37.1 -5.2,-15 -21.4,-22.7 -36.2,-17.2 -14.8,5.4 -22.6,22.1 -17.4,37.1 z"
   id="path532"
   inkscape:connector-curvature="0"
   style="fill:#0e538c" />
			<polygon
   class="st14"
   points="258.1,921.4 245.4,924.2 268,906.7 260.6,868.5 275.8,868.2 281.1,910.5 "
   id="polygon534"
   style="fill:#fcbaa2" />
			<path
   class="st4"
   d="m 282.6,916.9 -5,1.3 -3.4,-3.1 -18.4,9.2 -16.3,3.9 c 0,0 -0.2,-1.3 0.3,-2 2,-2.7 13.5,-8.6 13.5,-8.6 0,0 0.2,3.9 1.8,4 1.6,0.1 15.7,-7.3 19,-9.3 5.6,-3.5 6.7,-5.8 7.1,-5.5 1.2,0.6 1.4,10.1 1.4,10.1 z"
   id="path536"
   inkscape:connector-curvature="0"
   style="fill:#0e538c" />
			<polygon
   class="st14"
   points="176.8,844.2 164.2,840.5 192.1,835.8 207.3,805 220.3,809.4 202,845.4 "
   id="polygon538"
   style="fill:#fcbaa2" />
			<path
   class="st4"
   d="m 200.5,851.8 -5,-1.2 -1.6,-4.4 -22.7,-0.3 -13.5,-3.2 c 0,0 1.6,-1.8 2.6,-2.3 3,-1.3 13.7,-1.9 13.7,-1.9 0,0 -1.1,3.1 0.3,3.9 1.4,0.9 17,1.4 20.8,1.1 6.6,-0.5 8.5,-1.9 8.7,-1.5 0.7,1.4 -3.3,9.8 -3.3,9.8 z"
   id="path540"
   inkscape:connector-curvature="0"
   style="fill:#0e538c" />
			<path
   class="st9"
   d="m 353.8,701.7 -13.6,6.1 0.1,18.7 -93.7,-15.3 c 0,0 -8.9,-2.9 -14.6,11.8 -8.1,20.8 -28.7,85.5 -28.7,85.5 l 13,14.1 40.9,-73.1 c 0,0 83.8,40.7 111.4,31.9 10.6,-3.4 18.7,-22.8 17.2,-42.4 -1.2,-15.4 -4.2,-29.5 -4.2,-29.5 z"
   id="path542"
   inkscape:connector-curvature="0"
   style="fill:#ffb750" />
			<path
   class="st9"
   d="m 341.9,781 -67.1,-5 5.8,107.2 -19.8,0.7 -14.6,-125.6 c 0,0 3.9,-18.7 16.7,-15.9 12.9,2.9 43.9,27.5 79,38.6 z"
   id="path544"
   inkscape:connector-curvature="0"
   style="fill:#ffb750" />
			<path
   class="st2"
   d="m 387.1,807.9 c 0,0 -35.2,-39.5 -44.3,-61.8 -10.9,-26.7 -10,-60.2 -12,-71.3 -3.7,-20.4 -8.2,-60 -9,-64.9 -0.9,-4.9 2.2,-10.4 2.2,-10.4 0,0 -2.3,-14.8 4.3,-13.2 9.5,2.3 18.9,7.5 22.2,9.1 6.2,2.8 18.9,77.4 19.6,81 2.6,13 12.1,24.8 18.9,36.9 16,28.7 20.1,62.6 20.1,62.6 0,0 -2,24.8 -22,32 z"
   id="path546"
   inkscape:connector-curvature="0"
   style="fill:#2a94f4" />
			<g
   id="g554">
				<path
   class="st10"
   d="m 350.8,704.6 c 0,0 -0.3,4.8 -22.7,3.7 -22.4,-1.2 -55.2,-8.7 -55.2,-8.7 l 51.9,-2.4 c 0,0 19.9,0.1 26,7.4 z"
   id="path548"
   inkscape:connector-curvature="0"
   style="fill:#ffe3ca" />
				<path
   class="st10"
   d="m 290.5,702.2 c -10.7,-0.2 -15.3,5.3 -19.5,7 -4.2,1.7 -8.5,4.2 -8.5,4.2 2.4,-4.7 5.8,-4.8 7.6,-6.3 1.7,-1.5 1.3,-0.7 -2.5,-1.1 -2.2,-0.2 -6,3.7 -8.7,5.9 -2.4,1.9 -3.9,2 -3.9,2 0,0 2.8,-4 6.3,-7.2 4.3,-3.8 9.5,-7 10.8,-7.5 2.3,-0.9 9.4,-1 14.5,-0.2 5.7,0.8 11.6,3.4 3.9,3.2 z"
   id="path550"
   inkscape:connector-curvature="0"
   style="fill:#ffe3ca" />
				<path
   class="st10"
   d="m 272.6,699.3 c 0,0 -8.2,2 -9.6,3.1 -1,0.8 -5.2,5.3 -5.2,5.3 0,0 3,-0.5 4.8,-2.2 1.8,-1.6 10,-6.2 10,-6.2 z"
   id="path552"
   inkscape:connector-curvature="0"
   style="fill:#ffe3ca" />
			</g>
			<path
   class="st4"
   d="m 332.9,699.3 33.2,-17.5 c 0,0 0.1,21.2 0.3,29.3 0.2,8.1 3.6,19.5 -2.8,21.2 -6.4,1.7 -9.7,0.8 -3.1,4.7 6.6,3.8 5.1,7.8 2.6,11.1 -2.5,3.3 8.4,36.9 5.8,38.8 -10.3,-13 -21.4,-29.1 -26.2,-40.8 -6.1,-15.2 -8.5,-32.6 -9.8,-46.8 z"
   id="path556"
   inkscape:connector-curvature="0"
   style="fill:#0e538c" />
			<path
   class="st2"
   d="m 343.6,690.8 -1.3,-67.6 c 0,0 0.1,-21.1 0.5,-27.3 0.4,-6.4 11.3,1.1 11.3,1.1 0,0 15.3,20.7 15.6,70.6 0.2,33.4 -1.6,50.8 -17,49.4 -14.3,-1.3 -30.6,-3.5 -30.6,-3.5 L 315,695 Z"
   id="path558"
   inkscape:connector-curvature="0"
   style="fill:#2a94f4" />
			<g
   id="g566">
				<polygon
   class="st8"
   points="226.2,709.8 340.5,724.1 340.2,726.5 225.9,712.2 "
   id="polygon560"
   style="fill:#d3d3d3" />
				<path
   class="st8"
   d="m 290.1,717.7 c -0.2,1.9 -1.7,3.3 -3.3,3.1 l -58.6,-7.3 c -1.6,-0.2 -3.6,-1.7 -5,-6.7 l -22.6,-58.5 c 0.3,-2.4 2.2,-3.6 3.8,-3 l 59.9,9.4 c 1.6,0.6 2.7,2 3.3,4.6 z"
   id="path562"
   inkscape:connector-curvature="0"
   style="fill:#d3d3d3" />
				<path
   class="st8"
   d="m 282.7,719.3 0.6,0.1 57.2,7.2 c -2.2,0.9 -5.7,1.2 -9.6,0.7 l -47.9,-6 -0.6,-0.1 -47.9,-6 c -3.9,-0.5 -7.2,-1.7 -9.2,-3 z"
   id="path564"
   inkscape:connector-curvature="0"
   style="fill:#d3d3d3" />
			</g>
			<path
   class="st4"
   d="m 343.6,690.8 -1.3,-67.6 c 0,0 1,-5.7 3,-10.8 0.5,7.4 3.9,60.7 4.3,67.7 0.5,7.6 6.7,8.4 8,10.9 1.4,2.4 0.2,2.9 -4.4,2 -4.5,-1 -2.9,-0.2 -1.9,2.2 1,2.5 -1.5,1.8 -10.3,-1.4 -6.4,-2.3 -18.7,0 -24.9,1.4 z"
   id="path568"
   inkscape:connector-curvature="0"
   style="fill:#0e538c" />
			<path
   class="st15"
   d="m 738.8,524.9 c -11,2.9 -31.3,13.1 -35.6,30.6 -6.4,26.3 6.4,64.8 -13.8,102.6 -6.5,12 111.7,28.2 111.7,28.2 l 22.8,-132.8 c 0,0 -28.5,-28.8 -34.3,-30.8 -12.1,-4 -28.8,-3.6 -50.8,2.2 z"
   id="path570"
   inkscape:connector-curvature="0"
   style="fill:#cce9ff" />
			<path
   class="st2"
   d="m 824,553.6 c 4.1,10.6 14.5,73.7 2.9,88.6 -1.3,1.7 6,4.4 4.7,12.2 -0.2,1.3 -2.4,7.6 -2.4,7.6 l -9.4,2.5 -20.5,-23.7 c 0,0 8.3,-12.9 19.2,-61.8 3.2,-14.4 4.6,-27.8 5.5,-25.4 z"
   id="path572"
   inkscape:connector-curvature="0"
   style="fill:#2a94f4" />
			<path
   class="st12"
   d="m 746.4,629 c 0,0 9.9,26.1 33.8,33.1 4.1,1.2 6.7,5.8 4.7,7.3 -2.6,1.9 -6,2.3 -12,2.3 -12.5,0 -29.5,-4 -41.2,-15.8 -17.4,-17.4 -22.9,-25.4 -21.1,-34.1 1.6,-8.9 35.8,7.2 35.8,7.2 z"
   id="path574"
   inkscape:connector-curvature="0"
   style="fill:#fcd2b1" />
			<path
   class="st2"
   d="m 706.6,546.7 c -5.1,8.6 -8,22.4 -7.9,42.2 0,15.3 12.8,40.4 14.7,48.1 0.3,1.3 1.1,6.8 1.1,6.8 l 14.1,14.4 28.3,-19.9 -8.6,-13.7 -2.6,0.3 c 0,0 -1.6,-7.6 -1.2,-10.5 0.4,-2.9 -7.8,-42.4 -11.9,-67.7 -2.3,-14.7 -21,-8.5 -26,0 z"
   id="path576"
   inkscape:connector-curvature="0"
   style="fill:#2a94f4" />
			<path
   class="st4"
   d="m 732,624.3 8.3,-2.6 3.4,-0.9 c 0.2,2.4 2.2,4 2.2,4 l -6.5,0.8 -7.5,2.4 -8.8,6.3 z"
   id="path578"
   inkscape:connector-curvature="0"
   style="fill:#0e538c" />
			<path
   class="st12"
   d="m 778.4,662 14.4,-4.1 c 0,0 4.1,5.7 3.3,7.1 -0.8,1.4 0,9.8 0,9.8 l -7,6.2 -5.7,-2 c 0,0 -0.4,-2.6 1.5,-2.8 2,-0.3 -1.3,-1.7 -2.3,-2.3 -1,-0.7 -9.3,-5.1 -4.2,-11.9 z"
   id="path580"
   inkscape:connector-curvature="0"
   style="fill:#fcd2b1" />
			<path
   class="st16"
   d="m 756.2,523.6 c -1.6,4.7 0.8,10 5.4,11.6 l 8.2,3 c 4.6,1.7 9.6,-0.9 11.2,-5.6 l 7.3,-21.6 c 1.6,-4.7 -0.8,-10 -5.4,-11.7 l -8.2,-3 c -4.6,-1.7 -9.6,0.9 -11.2,5.6 z"
   id="path582"
   inkscape:connector-curvature="0"
   style="fill:#ff957e" />
			<path
   class="st12"
   d="m 792,542.6 c -0.8,3.1 -4,5 -7,4.1 l -24.7,-7.1 c -3,-0.9 -4.8,-4.1 -4,-7.3 l 10.1,-37.9 c 0.8,-3.1 4,-5 7,-4.1 l 24.7,7 c 3,0.9 4.8,4.1 4,7.3 z"
   id="path584"
   inkscape:connector-curvature="0"
   style="fill:#fcd2b1" />
			<path
   class="st1"
   d="m 804.8,500.8 c 0,0 0,0 0,0 0.2,-0.2 -2.3,-3 -1,-8.5 1.7,-7.4 -3.8,-10.4 -7.9,-10.5 -2.4,-0.1 -10.5,3.8 -14.8,5.1 -4.3,1.3 -3.9,-0.4 -11.7,-1.8 -5.2,-1 -6.4,1.9 -8.2,5.9 -1.8,4.1 -2,19.7 -2,19.7 0.7,1 1.8,1.8 2.5,1 0.7,-0.8 3.5,-13.3 5.8,-17 2.2,-3.7 11.2,2.2 16.1,5.1 4.8,2.9 9.1,3.4 16.8,1.8 0.9,1 1.7,2.1 1.7,2.6 0,1 -2.2,8.1 -2.2,8.1 0,0 4.3,-2.7 5.5,-4.8 0.6,-0.7 0.8,-4.1 -0.6,-6.7 z"
   id="path586"
   inkscape:connector-curvature="0"
   style="fill:#ffbe55" />
			<path
   class="st12"
   d="m 764.1,524.4 c -0.3,1 -1.3,1.7 -2.3,1.4 l -5.3,-1.5 c -1,-0.3 -1.6,-1.4 -1.3,-2.4 l 2.7,-10.1 c 0.3,-1 1.3,-1.7 2.3,-1.4 l 5.3,1.5 c 1,0.3 1.6,1.4 1.3,2.4 z"
   id="path588"
   inkscape:connector-curvature="0"
   style="fill:#fcd2b1" />
			<path
   class="st1"
   d="m 760.8,514.8 c 0,0 -4,14.9 -5.3,19.9 -1.2,4.5 -2.1,14.9 22.4,21.9 14.5,4.1 16.9,-7.1 17.9,-10.7 0.7,-2.8 -0.1,-11.9 -1.2,-13.9 0,-0.1 -1.6,6.2 -1.6,6.2 0,0 -1.4,-6.9 -8.3,-8.8 -11.1,-3.2 -15.5,2.9 -20.3,1.3 -3.8,-1.3 -4.9,-8.5 -3.6,-15.9 z"
   id="path590"
   inkscape:connector-curvature="0"
   style="fill:#ffbe55" />
			<path
   class="st12"
   d="m 777.5,537.7 7.6,2.2 c 1,0.3 2.1,-0.3 2.3,-1.4 l 0.3,-1.1 -11.3,-3.2 -0.3,1.1 c -0.2,1.1 0.4,2.1 1.4,2.4 z"
   id="path592"
   inkscape:connector-curvature="0"
   style="fill:#fcd2b1" />
			<path
   class="st17"
   d="m 898,689.2 c -3.5,10.1 -65.1,47.2 -85.8,45 l -62.3,3.1 c -52.9,-6.7 -78,-91.9 -78,-91.9 2.1,-21.4 54.3,9.6 72.9,19.2 29.4,15.2 48.1,16 48.1,16 19.7,2.1 42.5,-13.7 67.4,-14.2 27.3,-0.7 43.3,6.9 37.7,22.8 z"
   id="path594"
   inkscape:connector-curvature="0"
   style="fill:#0b4870" />
			<g
   id="g608">
				<path
   class="st8"
   d="m 762.6,679 c 0,-0.1 0,-0.1 0,0 v -2.8 l 107.1,-2 v 2.7 c 0,0 0,0.1 0,0.1 l -0.3,0.5 c -1.3,2.4 -3.8,2.8 -6.6,2.9 l -93.2,1.8 c -2.8,0.1 -5.3,-0.3 -6.7,-2.6 z"
   id="path596"
   inkscape:connector-curvature="0"
   style="fill:#d3d3d3" />
				<path
   class="st8"
   d="m 788.4,678.9 c 0,0 0,0.1 0,0 l -0.3,0.5 c -0.4,0.6 -0.9,1.1 -1.5,1.4 l -16.3,0.3 c -2.7,0.1 -5.1,-0.2 -6.5,-2.1 l -0.3,-0.4 c 0,0 0,0 -0.1,-0.1 v -1.3 l 24.8,-0.5 z"
   id="path598"
   inkscape:connector-curvature="0"
   style="fill:#d3d3d3" />
				<g
   id="g602">
					<polygon
   class="st8"
   points="856.4,675 802.8,676.1 802.9,677.9 856.4,676.9 "
   id="polygon600"
   style="fill:#d3d3d3" />
				</g>
				<g
   id="g606">
					<path
   class="st8"
   d="m 789,675.6 12.9,-54.8 c 0.3,-1.4 1.7,-2.6 3.1,-2.7 l 75.2,-1.4 c 1.4,0 2.2,1.1 1.9,2.6 l -12.9,54.8 z"
   id="path604"
   inkscape:connector-curvature="0"
   style="fill:#d3d3d3" />
				</g>
			</g>
			<path
   class="st12"
   d="m 740.5,751.4 c 7.4,1.3 13.1,-7.6 13.1,-7.6 l 19.2,-15.6 -4.1,-10.6 -37.4,17.4 c 0,0 1.7,15.1 9.2,16.4 z"
   id="path610"
   inkscape:connector-curvature="0"
   style="fill:#fcd2b1" />
			<path
   class="st9"
   d="m 753.5,743.2 c 0,0 0,0.9 -1.4,5 -1.4,4.1 -3.2,5.5 -5,6.1 -7.2,2.2 -12.3,1.1 -29.5,4.5 -17.2,3.4 -22.4,0.8 -27.4,-7.4 -5,-8.2 0.2,-14.7 8.6,-15.3 12.1,-0.9 18.9,0.5 25.2,-0.5 6.6,-1 7,-2.6 10.9,-5.1 3.6,-2.3 7,11.5 3.6,14.7 -3.1,2.8 12.5,3.2 15,-2 z"
   id="path612"
   inkscape:connector-curvature="0"
   style="fill:#ffb750" />
			<path
   class="st3"
   d="m 749.9,751.1 c -7.1,2.2 -12.3,1.1 -29.5,4.5 -17.2,3.4 -22.4,0.8 -27.4,-7.4 -2.3,-3.8 -2.4,-7.2 -1.1,-9.8 -3.8,2.7 -5.1,7.4 -1.7,13 5,8.2 10.2,10.8 27.4,7.4 17.2,-3.4 22.4,-2.3 29.5,-4.5 1.4,-0.4 2.8,-1.4 4,-3.7 -0.4,0.2 -0.8,0.4 -1.2,0.5 z"
   id="path614"
   inkscape:connector-curvature="0"
   style="fill:#ffffff" />
			<path
   class="st18"
   d="m 753.5,743.5 c 0,-0.2 0,-0.2 0,-0.2 0,0.1 -0.1,0.2 -0.2,0.3 0.1,-0.1 0.2,-0.1 0.2,-0.1 z"
   id="path616"
   inkscape:connector-curvature="0"
   style="fill:#e9d6b8" />
			<g
   id="g624">
				<path
   class="st3"
   d="m 716.4,749.6 c -0.5,0.2 -1,-0.9 -1.2,-2.4 -0.3,-3.1 -1,-6.1 -2,-9.2 -0.5,-1.5 -0.5,-2.8 0.1,-3 0.6,-0.2 1.6,0.9 2,2.4 1,3 1.6,6.1 1.9,9.1 0.2,1.5 -0.3,2.9 -0.8,3.1 z"
   id="path618"
   inkscape:connector-curvature="0"
   style="fill:#ffffff" />
				<path
   class="st3"
   d="m 721.7,748.6 c -0.6,0.1 -1.1,-0.9 -1.3,-2.3 -0.3,-2.9 -1,-5.8 -2,-8.6 -0.5,-1.4 -0.5,-2.6 0.2,-2.7 0.6,-0.1 1.6,1 2.1,2.4 0.9,2.8 1.6,5.7 1.9,8.5 0.1,1.4 -0.3,2.6 -0.9,2.7 z"
   id="path620"
   inkscape:connector-curvature="0"
   style="fill:#ffffff" />
				<path
   class="st3"
   d="m 727.3,748.4 c -0.6,0.1 -1.2,-1 -1.4,-2.5 -0.5,-3 -1.2,-5.9 -2.3,-8.9 -0.5,-1.5 -0.5,-2.7 0.1,-2.7 0.7,0 1.7,1.1 2.2,2.6 1.1,2.9 1.8,5.9 2.2,8.8 0.2,1.4 -0.2,2.6 -0.8,2.7 z"
   id="path622"
   inkscape:connector-curvature="0"
   style="fill:#ffffff" />
			</g>
			<path
   class="st4"
   d="m 741.8,725.9 c 0,0 131.7,-56.1 139.2,-56.2 25.4,-0.2 19.6,26.4 6.7,39 -15.2,14.8 -130.8,41.9 -130.8,41.9 z"
   id="path626"
   inkscape:connector-curvature="0"
   style="fill:#0e538c" />
			<polygon
   class="st12"
   points="773.4,684.6 812.6,727.4 794,735.7 758,700.3 "
   id="polygon628"
   style="fill:#fcd2b1" />
			<path
   class="st4"
   d="m 801.4,707.9 c 0,0 -91.5,-86.9 -97.6,-89.5 -20.9,-8.8 -33.8,15.1 -33.1,23.4 1,10.7 93.9,97.7 93.9,97.7 z"
   id="path630"
   inkscape:connector-curvature="0"
   style="fill:#0e538c" />
			<g
   id="g644">
				<path
   class="st9"
   d="m 855.6,738.4 c 2.1,2 2.5,8.1 2.5,8.1 0,0 -30.5,12 -41.2,12.2 -2.8,0.1 -7.8,-1.1 -12.6,-2.5 -0.8,-0.2 -2.7,-2.4 -3.5,-2.6 -1.5,-0.4 -1.8,1 -3,0.6 -3.2,-1.1 -5.6,-2 -5.7,-2.2 -6.5,-14.2 -4.3,-21.2 -4.3,-21.2 0,0 14,4.2 11.6,0.9 -5.1,-7 9.6,-14.1 12.8,-10.4 13.2,14.9 37.2,11.2 43.4,17.1 z"
   id="path632"
   inkscape:connector-curvature="0"
   style="fill:#ffb750" />
				<path
   class="st3"
   d="m 857.3,741.4 c -9.4,3.9 -29.1,11.8 -33,12.1 -16.1,1.2 -27.3,-4.7 -34.8,-8.2 0.7,2 1.5,4.3 2.6,6.7 0.1,0.2 2.4,1.1 5.7,2.2 1.3,0.4 1.6,-1.1 3,-0.6 0.8,0.2 2.6,2.4 3.5,2.6 4.8,1.4 9.8,2.5 12.6,2.5 10.7,-0.2 41.2,-12.2 41.2,-12.2 0,0 0,-2.8 -0.8,-5.1 z"
   id="path634"
   inkscape:connector-curvature="0"
   style="fill:#ffffff" />
				<g
   id="g642">
					<path
   class="st3"
   d="m 835.8,732.2 c 0.3,0.6 -0.9,1.2 -2.6,1.6 -3.5,0.7 -6.9,1.8 -10.3,3.2 -1.7,0.7 -3.2,0.9 -3.4,0.3 -0.2,-0.6 0.9,-1.7 2.6,-2.4 3.3,-1.4 6.8,-2.4 10.2,-3.1 1.6,-0.5 3.2,-0.2 3.5,0.4 z"
   id="path636"
   inkscape:connector-curvature="0"
   style="fill:#ffffff" />
					<path
   class="st3"
   d="m 828.9,729.7 c 0.3,0.6 -0.9,1.4 -2.6,1.9 -3.4,1 -6.7,2.4 -10,4.1 -1.6,0.8 -3.1,1.1 -3.3,0.5 -0.2,-0.6 0.9,-1.9 2.5,-2.7 3.2,-1.6 6.5,-3 9.9,-3.9 1.7,-0.7 3.3,-0.5 3.5,0.1 z"
   id="path638"
   inkscape:connector-curvature="0"
   style="fill:#ffffff" />
					<path
   class="st3"
   d="m 822.3,727.5 c 0.2,0.6 -0.9,1.5 -2.5,2.1 -3.3,1.3 -6.5,2.9 -9.6,4.8 -1.5,1 -2.9,1.3 -3.1,0.6 -0.2,-0.6 0.8,-2 2.4,-3 3.1,-1.9 6.3,-3.5 9.5,-4.7 1.6,-0.5 3.1,-0.4 3.3,0.2 z"
   id="path640"
   inkscape:connector-curvature="0"
   style="fill:#ffffff" />
				</g>
			</g>
		</g>
	</g>


</svg>